HIERARCHY
ROOT hip
{
  OFFSET 0 0 0
  CHANNELS 6 Xposition Yposition Zposition Zrotation Yrotation Xrotation
  JOINT abdomen
  {
    OFFSET 0 20.6881 -0.73152
    CHANNELS 3 Zrotation Xrotation Yrotation
    JOINT chest
    {
      OFFSET 0 11.7043 -0.48768
      CHANNELS 3 Zrotation Xrotation Yrotation
      JOINT neck
      {
        OFFSET 0 22.1894 -2.19456
        CHANNELS 3 Zrotation Xrotation Yrotation
        JOINT head
        {
          OFFSET -0.24384 7.07133 1.2192
          CHANNELS 3 Zrotation Xrotation Yrotation
          JOINT leftEye
          {
            OFFSET 4.14528 8.04674 8.04672
            CHANNELS 3 Zrotation Xrotation Yrotation
            End Site
            {
              OFFSET 1 0 0
            }
          }
          JOINT rightEye
          {
            OFFSET -3.6576 8.04674 8.04672
            CHANNELS 3 Zrotation Xrotation Yrotation
            End Site
            {
              OFFSET 1 0 0
            }
          }
        }
      }
      JOINT rCollar
      {
        OFFSET -2.68224 19.2634 -4.8768
        CHANNELS 3 Zrotation Xrotation Yrotation
        JOINT rShldr
        {
          OFFSET -8.77824 -1.95073 1.46304
          CHANNELS 3 Zrotation Xrotation Yrotation
          JOINT rForeArm
          {
            OFFSET -28.1742 -1.7115 0.48768
            CHANNELS 3 Zrotation Xrotation Yrotation
            JOINT rHand
            {
              OFFSET -22.5879 0.773209 7.07136
              CHANNELS 3 Zrotation Xrotation Yrotation
              JOINT rThumb1
              {
                OFFSET -1.2192 -0.487915 3.41376
                CHANNELS 3 Zrotation Xrotation Yrotation
                JOINT rThumb2
                {
                  OFFSET -3.37035 -0.52449 3.41376
                  CHANNELS 3 Zrotation Xrotation Yrotation
                  End Site
                  {
                    OFFSET -1.78271 -1.18214 1.43049
                  }
                }
              }
              JOINT rIndex1
              {
                OFFSET -7.75947 0.938293 5.60832
                CHANNELS 3 Zrotation Xrotation Yrotation
                JOINT rIndex2
                {
                  OFFSET -2.54057 -0.884171 1.56538
                  CHANNELS 3 Zrotation Xrotation Yrotation
                  End Site
                  {
                    OFFSET -1.62519 -0.234802 1.16502
                  }
                }
              }
              JOINT rMid1
              {
                OFFSET -8.24714 1.18213 3.41376
                CHANNELS 3 Zrotation Xrotation Yrotation
                JOINT rMid2
                {
                  OFFSET -3.10165 -0.590103 1.0647
                  CHANNELS 3 Zrotation Xrotation Yrotation
                  End Site
                  {
                    OFFSET -2.48547 -0.328903 0.83742
                  }
                }
              }
              JOINT rRing1
              {
                OFFSET -8.82822 0.546677 1.51678
                CHANNELS 3 Zrotation Xrotation Yrotation
                JOINT rRing2
                {
                  OFFSET -2.60934 -0.819778 -0.0198488
                  CHANNELS 3 Zrotation Xrotation Yrotation
                  End Site
                  {
                    OFFSET -2.33842 -0.294052 0.168128
                  }
                }
              }
              JOINT rPinky1
              {
                OFFSET -8.27202 -0.0477905 -0.4584
                CHANNELS 3 Zrotation Xrotation Yrotation
                JOINT rPinky2
                {
                  OFFSET -1.82734 -0.647385 -0.700984
                  CHANNELS 3 Zrotation Xrotation Yrotation
                  End Site
                  {
                    OFFSET -1.69225 -0.51767 -0.607171
                  }
                }
              }
            }
          }
        }
      }
      JOINT lCollar
      {
        OFFSET 2.68224 19.2634 -4.8768
        CHANNELS 3 Zrotation Xrotation Yrotation
        JOINT lShldr
        {
          OFFSET 8.77824 -1.95073 1.46304
          CHANNELS 3 Zrotation Xrotation Yrotation
          JOINT lForeArm
          {
            OFFSET 28.1742 -1.7115 0.48768
            CHANNELS 3 Zrotation Xrotation Yrotation
            JOINT lHand
            {
              OFFSET 22.5879 0.773209 7.07136
              CHANNELS 3 Zrotation Xrotation Yrotation
              JOINT lThumb1
              {
                OFFSET 1.2192 -0.487915 3.41376
                CHANNELS 3 Zrotation Xrotation Yrotation
                JOINT lThumb2
                {
                  OFFSET 3.37035 -0.52449 3.41376
                  CHANNELS 3 Zrotation Xrotation Yrotation
                  End Site
                  {
                    OFFSET 1.78271 -1.18214 1.43049
                  }
                }
              }
              JOINT lIndex1
              {
                OFFSET 7.75947 0.938293 5.60832
                CHANNELS 3 Zrotation Xrotation Yrotation
                JOINT lIndex2
                {
                  OFFSET 2.54057 -0.884171 1.56538
                  CHANNELS 3 Zrotation Xrotation Yrotation
                  End Site
                  {
                    OFFSET 1.62519 -0.234802 1.16502
                  }
                }
              }
              JOINT lMid1
              {
                OFFSET 8.24714 1.18213 3.41376
                CHANNELS 3 Zrotation Xrotation Yrotation
                JOINT lMid2
                {
                  OFFSET 3.10165 -0.590103 1.0647
                  CHANNELS 3 Zrotation Xrotation Yrotation
                  End Site
                  {
                    OFFSET 2.48547 -0.328903 0.83742
                  }
                }
              }
              JOINT lRing1
              {
                OFFSET 8.82822 0.546677 1.51678
                CHANNELS 3 Zrotation Xrotation Yrotation
                JOINT lRing2
                {
                  OFFSET 2.60934 -0.819778 -0.0198488
                  CHANNELS 3 Zrotation Xrotation Yrotation
                  End Site
                  {
                    OFFSET 2.33842 -0.294052 0.168128
                  }
                }
              }
              JOINT lPinky1
              {
                OFFSET 8.27202 -0.0477905 -0.4584
                CHANNELS 3 Zrotation Xrotation Yrotation
                JOINT lPinky2
                {
                  OFFSET 1.82734 -0.647385 -0.700984
                  CHANNELS 3 Zrotation Xrotation Yrotation
                  End Site
                  {
                    OFFSET 1.69225 -0.51767 -0.607171
                  }
                }
              }
            }
          }
        }
      }
    }
  }
  JOINT rButtock
  {
    OFFSET -8.77824 4.35084 1.2192
    CHANNELS 3 Zrotation Xrotation Yrotation
    JOINT rThigh
    {
      OFFSET 0 -1.70687 -2.19456
      CHANNELS 3 Zrotation Xrotation Yrotation
      JOINT rShin
      {
        OFFSET 0 -36.8199 0.73152
        CHANNELS 3 Zrotation Xrotation Yrotation
        JOINT rFoot
        {
          OFFSET 0.73152 -45.1104 -5.12064
          CHANNELS 3 Zrotation Xrotation Yrotation
          End Site
          {
            OFFSET -1.1221 -3.69964 12.103
          }
        }
      }
    }
  }
  JOINT lButtock
  {
    OFFSET 8.77824 4.35084 1.2192
    CHANNELS 3 Zrotation Xrotation Yrotation
    JOINT lThigh
    {
      OFFSET 0 -1.70687 -2.19456
      CHANNELS 3 Zrotation Xrotation Yrotation
      JOINT lShin
      {
        OFFSET 0 -36.8199 0.73152
        CHANNELS 3 Zrotation Xrotation Yrotation
        JOINT lFoot
        {
          OFFSET -0.73152 -45.1104 -5.12064
          CHANNELS 3 Zrotation Xrotation Yrotation
          End Site
          {
            OFFSET 1.1221 -3.69964 12.103
          }
        }
      }
    }
  }
}
MOTION
Frames:	4
Frame Time:	0.00833333
-3.83203 84.2564 37.6861 0.0 0.0 0.0 -1.24151 -0.00398119 -0.0340789 -0.342494 -0.00249264 -0.0593272 2.25666e-14 -1.59028e-15 1.24241e-16 6.73911e-14 3.18055e-15 3.69615e-16 -0.0 0.0 0.0 -0.0 0.0 0.0 1.12799e-14 -2.25186e-17 2.48481e-16 2.37801e-13 -6.89534e-16 2.78299e-15 4.04919e-12 -1.23525e-12 -3.18055e-15 4.64289e-11 1.11772e-12 3.30778e-13 1.095e-10 -2.52575e-13 7.18805e-13 1.89086e-10 -4.29375e-13 1.23246e-12 1.09505e-10 -2.52854e-13 7.09264e-13 7.73091 5.47488 0.417314 1.09501e-10 -2.52457e-13 7.18805e-13 2.90554 0.965183 0.102902 1.09509e-10 -2.52457e-13 7.21191e-13 10.2786 0.731801 0.0259123 1.09495e-10 -2.50469e-13 7.28347e-13 2.22167 -0.733487 -0.20892 1.11835e-14 -2.52363e-17 -1.49089e-16 2.33854e-13 -8.82107e-16 9.93923e-16 4.06371e-12 1.19171e-12 -1.90833e-14 4.64213e-11 -1.31899e-12 3.65764e-13 1.09517e-10 -2.69319e-13 7.18805e-13 1.89146e-10 -4.6118e-13 1.24042e-12 1.09514e-10 -2.68757e-13 7.31528e-13 -7.73091 5.47488 -0.417314 1.09517e-10 -2.69751e-13 7.15625e-13 -2.90554 0.965183 -0.102902 1.09512e-10 -2.69154e-13 7.1801e-13 -10.2786 0.731801 -0.0259123 1.09525e-10 -2.69552e-13 6.99722e-13 -2.22167 -0.733487 0.20892 -2.03217e-16 0.0 -3.88251e-19 -0.45383 -1.92099 -0.00952728 -0.00915568 -2.07857 -0.0755528 -0.487463 3.99699 0.136654 2.03217e-16 0.0 3.88251e-19 -1.43727 -5.97115 0.129662 -0.00126426 5.25795 -0.045414 0.507816 0.710744 -0.0722741
-6.29313 83.7112 36.3894 -5.2941 -3.4419 3.0109 0.0442614 -0.758651 -0.0150654 -0.174762 -0.0847939 -0.0515534 -0.31187 1.01731 -0.0887195 0.963412 1.87871 -0.17819 -0.0 0.0 0.0 -0.0 0.0 0.0 5.63252e-14 1.88718e-14 -6.18174e-15 22.1702 12.322 -5.05995 -14.9012 -12.1201 14.5416 0.000638681 -0.617707 -0.0867984 -4.86566e-12 3.37231e-10 -1.06394e-10 -7.54211e-12 5.83112e-10 -1.8543e-10 -4.86258e-12 3.37231e-10 -1.06404e-10 7.73091 5.47488 0.417314 -4.86599e-12 3.37232e-10 -1.06398e-10 2.90554 0.965183 0.102902 -4.85801e-12 3.37232e-10 -1.06394e-10 10.2786 0.731801 0.0259123 -4.87221e-12 3.37235e-10 -1.06389e-10 2.22167 -0.733487 -0.20892 5.62395e-14 1.88704e-14 -6.49428e-15 -22.2072 13.4585 3.45388 17.2021 -14.6842 -15.0128 -0.0243006 -3.46007 0.483087 -7.85912e-11 -1.41135e-10 1.2007e-10 -1.36567e-10 -2.51222e-10 2.05893e-10 -7.8594e-11 -1.41135e-10 1.2008e-10 -7.73091 5.47488 -0.417314 -7.85933e-11 -1.41141e-10 1.20065e-10 -2.90554 0.965183 -0.102902 -7.85972e-11 -1.41142e-10 1.20065e-10 -10.2786 0.731801 -0.0259123 -7.85838e-11 -1.41133e-10 1.20053e-10 -2.22167 -0.733487 0.20892 -2.03217e-16 0.0 -3.88251e-19 -6.26417 -2.19924 -0.00993153 -0.00620624 -1.68734 -0.0542187 -0.200977 3.88205 0.0930197 2.03217e-16 0.0 3.88251e-19 2.19921 -7.14753 -2.00649 -0.0224517 10.2854 -0.195756 0.848561 -5.37605 4.5783
-6.33213 83.7312 36.4553 -5.9757 -3.2167 2.7748 1.40567 -1.55858 0.0062914 0.00450603 -0.173012 -0.0429889 -0.637718 2.0927 -0.184004 1.99004 3.83051 -0.368448 -0.0 0.0 0.0 -0.0 0.0 0.0 1.07945e-13 4.05106e-14 -1.09021e-14 48.2343 24.9462 -11.272 -23.7175 -22.1056 31.7945 -0.000834533 -1.30062 -0.182796 -1.31071e-10 7.29133e-10 -2.28943e-10 -2.24545e-10 1.26081e-09 -3.9894e-10 -1.31069e-10 7.29134e-10 -2.28954e-10 7.73091 5.47488 0.417314 -1.31072e-10 7.29136e-10 -2.28951e-10 2.90554 0.965183 0.102902 -1.31064e-10 7.29136e-10 -2.28947e-10 10.2786 0.731801 0.0259123 -1.31079e-10 7.29139e-10 -2.28942e-10 2.22167 -0.733487 -0.20892 1.07874e-13 4.05106e-14 -1.11226e-14 -47.6666 27.4943 7.81512 26.4909 -26.5585 -33.8231 0.0138708 -7.10714 0.998283 -2.87706e-10 -3.80446e-10 2.3805e-10 -4.98522e-10 -6.72829e-10 4.0797e-10 -2.87708e-10 -3.80446e-10 2.38057e-10 -7.73091 5.47488 -0.417314 -2.87711e-10 -3.80458e-10 2.38044e-10 -2.90554 0.965183 -0.102902 -2.87714e-10 -3.8046e-10 2.38041e-10 -10.2786 0.731801 -0.0259123 -2.87699e-10 -3.80442e-10 2.38036e-10 -2.22167 -0.733487 0.20892 -2.03217e-16 0.0 -3.88251e-19 -12.4065 -2.4935 -0.0103601 -0.00340516 -1.27346 -0.0316797 0.101742 3.76035 0.0468952 2.03217e-16 0.0 3.88251e-19 5.94741 -8.3803 -4.27899 -0.0150558 15.6023 -0.361758 2.29793 -11.6827 9.65311
-6.30184 83.716 36.4184 -5.3585 -3.3896 2.9111 2.61731 -2.26799 0.0229836 0.160769 -0.249396 -0.0360061 -0.926147 3.05189 -0.266494 2.92544 5.63591 -0.536878 -0.0 0.0 0.0 -0.0 0.0 0.0 1.46416e-13 5.66604e-14 -1.90422e-14 74.2206 35.676 -18.365 -26.5726 -26.6248 49.2551 -0.00370109 -1.8531 -0.260516 -2.33597e-10 1.0122e-09 -3.20619e-10 -4.00797e-10 1.75019e-09 -5.58756e-10 -2.33597e-10 1.0122e-09 -3.20631e-10 7.73091 5.47488 0.417314 -2.33599e-10 1.0122e-09 -3.20631e-10 2.90554 0.965183 0.102902 -2.33591e-10 1.0122e-09 -3.20625e-10 10.2786 0.731801 0.0259123 -2.33606e-10 1.0122e-09 -3.20623e-10 2.22167 -0.733487 -0.20892 1.46352e-13 5.66616e-14 -1.91847e-14 -72.6905 39.697 13.1439 28.2102 -31.1593 -53.6021 0.104596 -10.3772 1.47068 -4.54808e-10 -4.22866e-10 3.58771e-10 -7.87993e-10 -7.52745e-10 6.152e-10 -4.54809e-10 -4.22867e-10 3.58776e-10 -7.73091 5.47488 -0.417314 -4.54814e-10 -4.22883e-10 3.58765e-10 -2.90554 0.965183 -0.102902 -4.54816e-10 -4.22887e-10 3.5876e-10 -10.2786 0.731801 -0.0259123 -4.54801e-10 -4.22861e-10 3.5876e-10 -2.22167 -0.733487 0.20892 -2.03217e-16 0.0 -3.88251e-19 -17.8849 -2.75575 -0.0107412 -0.00118138 -0.904868 -0.0115807 0.37147 3.65216 0.00578658 2.03217e-16 0.0 3.88251e-19 9.20645 -9.45656 -6.31678 0.0193166 20.3397 -0.519796 4.57548 -17.0756 14.4697
